<svg xmlns="http://www.w3.org/2000/svg" viewBox="0 0 64 64" width="64" height="64">
  <!-- Background circle -->
  <circle cx="32" cy="32" r="32" fill="#1a1a2e"/>
  <!-- Brain outline - stylized two hemispheres -->
  <!-- Left hemisphere -->
  <path d="M32 18 C28 18, 22 20, 20 25 C18 28, 18 31, 19 34 C20 37, 19 40, 21 42 C23 44, 26 44, 28 43 C29 45, 30 46, 32 46 L32 18Z" fill="none" stroke="#7c3aed" stroke-width="2.5" stroke-linejoin="round"/>
  <!-- Right hemisphere -->
  <path d="M32 18 C36 18, 42 20, 44 25 C46 28, 46 31, 45 34 C44 37, 45 40, 43 42 C41 44, 38 44, 36 43 C35 45, 34 46, 32 46 L32 18Z" fill="none" stroke="#7c3aed" stroke-width="2.5" stroke-linejoin="round"/>
  <!-- Brain folds - left -->
  <path d="M23 26 C24 24, 27 23, 28 25" fill="none" stroke="#a78bfa" stroke-width="1.5" stroke-linecap="round"/>
  <path d="M21 32 C22 30, 25 29, 26 31" fill="none" stroke="#a78bfa" stroke-width="1.5" stroke-linecap="round"/>
  <path d="M22 38 C23 36, 26 36, 27 38" fill="none" stroke="#a78bfa" stroke-width="1.5" stroke-linecap="round"/>
  <!-- Brain folds - right -->
  <path d="M41 26 C40 24, 37 23, 36 25" fill="none" stroke="#a78bfa" stroke-width="1.5" stroke-linecap="round"/>
  <path d="M43 32 C42 30, 39 29, 38 31" fill="none" stroke="#a78bfa" stroke-width="1.5" stroke-linecap="round"/>
  <path d="M42 38 C41 36, 38 36, 37 38" fill="none" stroke="#a78bfa" stroke-width="1.5" stroke-linecap="round"/>
  <!-- Center divider line -->
  <line x1="32" y1="18" x2="32" y2="46" stroke="#7c3aed" stroke-width="1.5" stroke-dasharray="3,2"/>
  <!-- Focus pulse ring -->
  <circle cx="32" cy="32" r="26" fill="none" stroke="#4f46e5" stroke-width="1" stroke-dasharray="4,3" opacity="0.5"/>
</svg>
